Cooperativa-Sans-Regular.ufo
<glyph name="B" format="2">
	<advance width="570"/>
	<unicode hex="0042"/>
	<outline>
		<contour>
			<point x="144" y="0" type="curve" smooth="yes"/>
			<point x="259" y="0" type="line" smooth="yes"/>
			<point x="442" y="0"/>
			<point x="530" y="81"/>
			<point x="530" y="221" type="curve" smooth="yes"/>
			<point x="530" y="382"/>
			<point x="394" y="442"/>
			<point x="223" y="442" type="curve" smooth="yes"/>
			<point x="166" y="442" type="line"/>
			<point x="166" y="364" type="line"/>
			<point x="269" y="364" type="line" smooth="yes"/>
			<point x="396" y="364"/>
			<point x="430" y="303"/>
			<point x="430" y="221" type="curve" smooth="yes"/>
			<point x="430" y="139"/>
			<point x="380" y="78"/>
			<point x="268" y="78" type="curve" smooth="yes"/>
			<point x="145" y="78" type="line"/>
			<point x="144" y="44"/>
			<point x="143" y="0"/>
		</contour>
		<contour>
			<point x="60" y="0" type="curve"/>
			<point x="184" y="0" type="line"/>
			<point x="180" y="34"/>
			<point x="174" y="131"/>
			<point x="174" y="276" type="curve" smooth="yes"/>
			<point x="174" y="474" type="line" smooth="yes"/>
			<point x="174" y="617"/>
			<point x="180" y="716"/>
			<point x="184" y="750" type="curve"/>
			<point x="60" y="750" type="line"/>
			<point x="64" y="716"/>
			<point x="70" y="617"/>
			<point x="70" y="474" type="curve" smooth="yes"/>
			<point x="70" y="275" type="line" smooth="yes"/>
			<point x="70" y="130"/>
			<point x="64" y="33"/>
		</contour>
		<contour>
			<point x="135" y="364" type="curve" smooth="yes"/>
			<point x="179" y="364" type="line" smooth="yes"/>
			<point x="369" y="364"/>
			<point x="479" y="419"/>
			<point x="479" y="559" type="curve" smooth="yes"/>
			<point x="479" y="699"/>
			<point x="376" y="750"/>
			<point x="219" y="750" type="curve" smooth="yes"/>
			<point x="126" y="750" type="line"/>
			<point x="126" y="672" type="line"/>
			<point x="218" y="672" type="line" smooth="yes"/>
			<point x="333" y="672"/>
			<point x="379" y="636"/>
			<point x="379" y="559" type="curve" smooth="yes"/>
			<point x="379" y="477"/>
			<point x="340" y="442"/>
			<point x="208" y="442" type="curve" smooth="yes"/>
			<point x="136" y="442" type="line"/>
			<point x="135" y="408"/>
			<point x="134" y="364"/>
		</contour>
	</outline>
</glyph>
<glyph name="C" format="2">
	<advance width="619"/>
	<unicode hex="0043"/>
	<outline>
		<contour>
			<point x="365" y="-14" type="curve" smooth="yes"/>
			<point x="447" y="-14"/>
			<point x="528" y="0"/>
			<point x="574" y="26" type="curve"/>
			<point x="575" y="67"/>
			<point x="564" y="109"/>
			<point x="544" y="129" type="curve"/>
			<point x="507" y="104"/>
			<point x="424" y="78"/>
			<point x="365" y="78" type="curve" smooth="yes"/>
			<point x="264" y="78"/>
			<point x="172" y="194"/>
			<point x="172" y="375" type="curve" smooth="yes"/>
			<point x="172" y="556"/>
			<point x="244" y="686"/>
			<point x="364" y="686" type="curve" smooth="yes"/>
			<point x="417" y="686"/>
			<point x="454" y="669"/>
			<point x="484" y="636" type="curve"/>
			<point x="546" y="728" type="line"/>
			<point x="499" y="763"/>
			<point x="411" y="769"/>
			<point x="364" y="769" type="curve" smooth="yes"/>
			<point x="174" y="769"/>
			<point x="60" y="640"/>
			<point x="60" y="375" type="curve" smooth="yes"/>
			<point x="60" y="110"/>
			<point x="185" y="-14"/>
		</contour>
	</outline>
</glyph>
<glyph name="F" format="2">
	<advance width="506"/>
	<unicode hex="0046"/>
	<outline>
		<contour>
			<point x="60" y="0" type="curve"/>
			<point x="188" y="0" type="line"/>
			<point x="184" y="34"/>
			<point x="178" y="131"/>
			<point x="178" y="276" type="curve" smooth="yes"/>
			<point x="178" y="474" type="line" smooth="yes"/>
			<point x="178" y="617"/>
			<point x="184" y="716"/>
			<point x="188" y="750" type="curve"/>
			<point x="60" y="750" type="line"/>
			<point x="63" y="716"/>
			<point x="68" y="617"/>
			<point x="68" y="474" type="curve" smooth="yes"/>
			<point x="68" y="275" type="line" smooth="yes"/>
			<point x="68" y="130"/>
			<point x="63" y="33"/>
		</contour>
		<contour>
			<point x="96" y="344" type="line"/>
			<point x="330" y="344" type="line" smooth="yes"/>
			<point x="382" y="344"/>
			<point x="402" y="367"/>
			<point x="402" y="402" type="curve" smooth="yes"/>
			<point x="402" y="422"/>
			<point x="393" y="437"/>
			<point x="386" y="443" type="curve"/>
			<point x="376" y="434"/>
			<point x="321" y="422"/>
			<point x="199" y="422" type="curve" smooth="yes"/>
			<point x="96" y="422" type="line"/>
		</contour>
		<contour>
			<point x="456" y="651" type="curve"/>
			<point x="463" y="657"/>
			<point x="472" y="676"/>
			<point x="472" y="707" type="curve" smooth="yes"/>
			<point x="472" y="740"/>
			<point x="452" y="750"/>
			<point x="421" y="750" type="curve" smooth="yes"/>
			<point x="166" y="750" type="line"/>
			<point x="166" y="672" type="line"/>
			<point x="279" y="672" type="line" smooth="yes"/>
			<point x="391" y="672"/>
			<point x="446" y="660"/>
		</contour>
	</outline>
</glyph>
<glyph name="H" format="2">
	<advance width="668"/>
	<unicode hex="0048"/>
	<outline>
		<contour>
			<point x="480" y="0" type="curve"/>
			<point x="608" y="0" type="line"/>
			<point x="604" y="34"/>
			<point x="598" y="131"/>
			<point x="598" y="276" type="curve" smooth="yes"/>
			<point x="598" y="474" type="line" smooth="yes"/>
			<point x="598" y="617"/>
			<point x="604" y="716"/>
			<point x="608" y="750" type="curve"/>
			<point x="480" y="750" type="line"/>
			<point x="483" y="716"/>
			<point x="488" y="617"/>
			<point x="488" y="474" type="curve" smooth="yes"/>
			<point x="488" y="275" type="line" smooth="yes"/>
			<point x="488" y="130"/>
			<point x="483" y="33"/>
		</contour>
		<contour>
			<point x="60" y="0" type="curve"/>
			<point x="188" y="0" type="line"/>
			<point x="184" y="34"/>
			<point x="178" y="131"/>
			<point x="178" y="276" type="curve" smooth="yes"/>
			<point x="178" y="474" type="line" smooth="yes"/>
			<point x="178" y="617"/>
			<point x="184" y="716"/>
			<point x="188" y="750" type="curve"/>
			<point x="60" y="750" type="line"/>
			<point x="63" y="716"/>
			<point x="68" y="617"/>
			<point x="68" y="474" type="curve" smooth="yes"/>
			<point x="68" y="275" type="line" smooth="yes"/>
			<point x="68" y="130"/>
			<point x="63" y="33"/>
		</contour>
		<contour>
			<point x="178" y="334" type="line"/>
			<point x="341" y="336" type="line"/>
			<point x="489" y="334" type="line"/>
			<point x="489" y="422" type="line"/>
			<point x="340" y="420" type="line"/>
			<point x="178" y="422" type="line"/>
		</contour>
	</outline>
</glyph>
<glyph name="I" format="2">
	<advance width="210"/>
	<unicode hex="0049"/>
	<outline>
		<contour>
			<point x="40" y="0" type="curve"/>
			<point x="170" y="0" type="line"/>
			<point x="166" y="34"/>
			<point x="160" y="131"/>
			<point x="160" y="276" type="curve" smooth="yes"/>
			<point x="160" y="474" type="line" smooth="yes"/>
			<point x="160" y="617"/>
			<point x="166" y="716"/>
			<point x="170" y="750" type="curve"/>
			<point x="40" y="750" type="line"/>
			<point x="44" y="716"/>
			<point x="50" y="617"/>
			<point x="50" y="474" type="curve" smooth="yes"/>
			<point x="50" y="275" type="line" smooth="yes"/>
			<point x="50" y="130"/>
			<point x="44" y="33"/>
		</contour>
	</outline>
</glyph>
<glyph name="N" format="2">
	<advance width="634"/>
	<unicode hex="004E"/>
	<anchor x="320" y="786" name="top"/>
	<outline>
		<contour>
			<point x="433" y="0" type="line"/>
			<point x="547" y="0" type="line"/>
			<point x="194" y="750" type="line"/>
			<point x="88" y="750" type="line"/>
		</contour>
		<contour>
			<point x="60" y="0" type="curve"/>
			<point x="170" y="0" type="line"/>
			<point x="166" y="34"/>
			<point x="160" y="131"/>
			<point x="160" y="276" type="curve" smooth="yes"/>
			<point x="160" y="474" type="line" smooth="yes"/>
			<point x="160" y="617"/>
			<point x="166" y="716"/>
			<point x="170" y="750" type="curve"/>
			<point x="60" y="750" type="line"/>
			<point x="64" y="716"/>
			<point x="70" y="617"/>
			<point x="70" y="474" type="curve" smooth="yes"/>
			<point x="70" y="275" type="line" smooth="yes"/>
			<point x="70" y="130"/>
			<point x="64" y="33"/>
		</contour>
		<contour>
			<point x="464" y="0" type="curve"/>
			<point x="574" y="0" type="line"/>
			<point x="570" y="34"/>
			<point x="564" y="131"/>
			<point x="564" y="276" type="curve" smooth="yes"/>
			<point x="564" y="474" type="line" smooth="yes"/>
			<point x="564" y="617"/>
			<point x="570" y="716"/>
			<point x="574" y="750" type="curve"/>
			<point x="464" y="750" type="line"/>
			<point x="468" y="716"/>
			<point x="474" y="617"/>
			<point x="474" y="474" type="curve" smooth="yes"/>
			<point x="474" y="275" type="line" smooth="yes"/>
			<point x="474" y="130"/>
			<point x="468" y="33"/>
		</contour>
	</outline>
</glyph>
<glyph name="O" format="2">
	<advance width="730"/>
	<unicode hex="004F"/>
	<outline>
		<contour>
			<point x="365" y="-14" type="curve" smooth="yes"/>
			<point x="555" y="-14"/>
			<point x="665" y="120"/>
			<point x="665" y="375" type="curve" smooth="yes"/>
			<point x="665" y="640"/>
			<point x="555" y="766"/>
			<point x="365" y="766" type="curve" smooth="yes"/>
			<point x="175" y="766"/>
			<point x="60" y="640"/>
			<point x="60" y="375" type="curve" smooth="yes"/>
			<point x="60" y="120"/>
			<point x="175" y="-14"/>
		</contour>
		<contour>
			<point x="365" y="68" type="curve" smooth="yes"/>
			<point x="235" y="68"/>
			<point x="178" y="185"/>
			<point x="178" y="375" type="curve" smooth="yes"/>
			<point x="178" y="576"/>
			<point x="235" y="683"/>
			<point x="365" y="683" type="curve" smooth="yes"/>
			<point x="495" y="683"/>
			<point x="550" y="575"/>
			<point x="550" y="375" type="curve" smooth="yes"/>
			<point x="550" y="185"/>
			<point x="495" y="68"/>
		</contour>
	</outline>
</glyph>
<glyph name="T" format="2">
	<advance width="548"/>
	<unicode hex="0054"/>
	<outline>
		<contour>
			<point x="204" y="0" type="curve"/>
			<point x="332" y="0" type="line"/>
			<point x="328" y="34"/>
			<point x="322" y="131"/>
			<point x="322" y="276" type="curve" smooth="yes"/>
			<point x="322" y="474" type="line" smooth="yes"/>
			<point x="322" y="617"/>
			<point x="328" y="716"/>
			<point x="332" y="750" type="curve"/>
			<point x="204" y="750" type="line"/>
			<point x="207" y="716"/>
			<point x="212" y="617"/>
			<point x="212" y="474" type="curve" smooth="yes"/>
			<point x="212" y="275" type="line" smooth="yes"/>
			<point x="212" y="130"/>
			<point x="207" y="33"/>
		</contour>
		<contour>
			<point x="528" y="646" type="curve"/>
			<point x="528" y="750" type="line"/>
			<point x="20" y="750" type="line"/>
			<point x="20" y="647" type="line"/>
			<point x="87" y="653"/>
			<point x="196" y="662"/>
			<point x="280" y="662" type="curve" smooth="yes"/>
			<point x="373" y="662"/>
			<point x="472" y="653"/>
		</contour>
	</outline>
</glyph>
<glyph name="V" format="2">
	<advance width="642"/>
	<unicode hex="0056"/>
	<outline>
		<contour>
			<point x="272" y="0" type="line"/>
			<point x="358" y="30" type="line"/>
			<point x="128" y="750" type="line"/>
			<point x="15" y="750" type="line"/>
		</contour>
		<contour>
			<point x="262" y="0" type="line"/>
			<point x="357" y="0" type="line"/>
			<point x="589" y="674" type="line"/>
			<point x="597" y="697"/>
			<point x="602" y="713"/>
			<point x="617" y="729" type="curve"/>
			<point x="601" y="753"/>
			<point x="580" y="762"/>
			<point x="552" y="762" type="curve" smooth="yes"/>
			<point x="525" y="762"/>
			<point x="499" y="755"/>
			<point x="484" y="712" type="curve"/>
		</contour>
	</outline>
</glyph>
<glyph name="a" format="2">
	<advance width="532"/>
	<unicode hex="0061"/>
	<outline>
		<contour>
			<point x="412" y="-9" type="curve" smooth="yes"/>
			<point x="460" y="-9"/>
			<point x="480" y="17"/>
			<point x="482" y="34" type="curve"/>
			<point x="466" y="41"/>
			<point x="449" y="82"/>
			<point x="449" y="164" type="curve" smooth="yes"/>
			<point x="449" y="387" type="line" smooth="yes"/>
			<point x="449" y="510"/>
			<point x="360" y="566"/>
			<point x="247" y="566" type="curve" smooth="yes"/>
			<point x="147" y="566"/>
			<point x="73" y="545"/>
			<point x="73" y="496" type="curve" smooth="yes"/>
			<point x="73" y="469"/>
			<point x="83" y="450"/>
			<point x="90" y="444" type="curve"/>
			<point x="119" y="463"/>
			<point x="179" y="488"/>
			<point x="240" y="488" type="curve" smooth="yes"/>
			<point x="315" y="488"/>
			<point x="356" y="463"/>
			<point x="356" y="393" type="curve" smooth="yes"/>
			<point x="356" y="43" type="line" smooth="yes"/>
			<point x="356" y="10"/>
			<point x="377" y="-9"/>
		</contour>
		<contour>
			<point x="180" y="-14" type="curve" smooth="yes"/>
			<point x="313" y="-14"/>
			<point x="409" y="109"/>
			<point x="409" y="200" type="curve"/>
			<point x="356" y="200" type="line"/>
			<point x="356" y="161"/>
			<point x="302" y="64"/>
			<point x="216" y="64" type="curve" smooth="yes"/>
			<point x="172" y="64"/>
			<point x="140" y="89"/>
			<point x="140" y="149" type="curve" smooth="yes"/>
			<point x="140" y="218"/>
			<point x="172" y="250"/>
			<point x="243" y="250" type="curve" smooth="yes"/>
			<point x="386" y="250" type="line"/>
			<point x="386" y="328" type="line"/>
			<point x="242" y="328" type="line" smooth="yes"/>
			<point x="109" y="328"/>
			<point x="40" y="251"/>
			<point x="40" y="144" type="curve" smooth="yes"/>
			<point x="40" y="49"/>
			<point x="98" y="-14"/>
		</contour>
	</outline>
</glyph>
<glyph name="c" format="2">
	<advance width="482"/>
	<unicode hex="0063"/>
	<anchor x="290" y="598" name="top"/>
	<outline>
		<contour>
			<point x="290" y="-14" type="curve" smooth="yes"/>
			<point x="362" y="-14"/>
			<point x="426" y="-1"/>
			<point x="467" y="26" type="curve"/>
			<point x="466" y="56"/>
			<point x="457" y="95"/>
			<point x="436" y="114" type="curve"/>
			<point x="407" y="95"/>
			<point x="355" y="66"/>
			<point x="290" y="66" type="curve" smooth="yes"/>
			<point x="218" y="66"/>
			<point x="140" y="108"/>
			<point x="140" y="275" type="curve" smooth="yes"/>
			<point x="140" y="442"/>
			<point x="218" y="485"/>
			<point x="290" y="485" type="curve" smooth="yes"/>
			<point x="325" y="485"/>
			<point x="363" y="468"/>
			<point x="391" y="439" type="curve"/>
			<point x="446" y="526" type="line"/>
			<point x="407" y="553"/>
			<point x="358" y="566"/>
			<point x="290" y="566" type="curve" smooth="yes"/>
			<point x="133" y="566"/>
			<point x="40" y="468"/>
			<point x="40" y="275" type="curve" smooth="yes"/>
			<point x="40" y="82"/>
			<point x="133" y="-14"/>
		</contour>
	</outline>
</glyph>
<glyph name="e" format="2">
	<advance width="534"/>
	<unicode hex="0065"/>
	<anchor x="297" y="598" name="top"/>
	<outline>
		<contour>
			<point x="317" y="-14" type="curve" smooth="yes"/>
			<point x="437" y="-14"/>
			<point x="494" y="28"/>
			<point x="494" y="40" type="curve" smooth="yes"/>
			<point x="494" y="82"/>
			<point x="476" y="111"/>
			<point x="462" y="122" type="curve"/>
			<point x="439" y="97"/>
			<point x="382" y="64"/>
			<point x="298" y="64" type="curve" smooth="yes"/>
			<point x="217" y="64"/>
			<point x="140" y="95"/>
			<point x="140" y="275" type="curve" smooth="yes"/>
			<point x="140" y="448"/>
			<point x="206" y="488"/>
			<point x="280" y="488" type="curve" smooth="yes"/>
			<point x="354" y="488"/>
			<point x="397" y="448"/>
			<point x="397" y="336" type="curve"/>
			<point x="123" y="336" type="line"/>
			<point x="123" y="258" type="line"/>
			<point x="468" y="258" type="line"/>
			<point x="481" y="273"/>
			<point x="494" y="311"/>
			<point x="494" y="357" type="curve" smooth="yes"/>
			<point x="494" y="459"/>
			<point x="430" y="566"/>
			<point x="288" y="566" type="curve" smooth="yes"/>
			<point x="169" y="566"/>
			<point x="40" y="477"/>
			<point x="40" y="275" type="curve" smooth="yes"/>
			<point x="40" y="80"/>
			<point x="138" y="-14"/>
		</contour>
	</outline>
</glyph>
<glyph name="m" format="2">
	<advance width="907"/>
	<unicode hex="006D"/>
	<outline>
		<contour>
			<point x="769" y="-10" type="curve"/>
			<point x="811" y="-10"/>
			<point x="849" y="4"/>
			<point x="867" y="15" type="curve"/>
			<point x="856" y="26"/>
			<point x="842" y="68"/>
			<point x="842" y="134" type="curve" smooth="yes"/>
			<point x="842" y="223"/>
			<point x="841" y="272"/>
			<point x="840" y="361" type="curve" smooth="yes"/>
			<point x="840" y="482"/>
			<point x="779" y="555"/>
			<point x="653" y="555" type="curve" smooth="yes"/>
			<point x="517" y="555"/>
			<point x="443" y="458"/>
			<point x="443" y="378" type="curve"/>
			<point x="500" y="331" type="line"/>
			<point x="499" y="393"/>
			<point x="543" y="466"/>
			<point x="633" y="466" type="curve" smooth="yes"/>
			<point x="714" y="466"/>
			<point x="745" y="413"/>
			<point x="745" y="350" type="curve" smooth="yes"/>
			<point x="745" y="141" type="line" smooth="yes"/>
			<point x="745" y="36"/>
			<point x="759" y="-7"/>
		</contour>
		<contour>
			<point x="71" y="0" type="line"/>
			<point x="177" y="0" type="line"/>
			<point x="170" y="33"/>
			<point x="160" y="130"/>
			<point x="160" y="275" type="curve" smooth="yes"/>
			<point x="160" y="505" type="line"/>
			<point x="137" y="551" type="line"/>
			<point x="60" y="551" type="line"/>
			<point x="64" y="517"/>
			<point x="69" y="418"/>
			<point x="70" y="275" type="curve" smooth="yes"/>
		</contour>
		<contour>
			<point x="405" y="0" type="line"/>
			<point x="504" y="0" type="line"/>
			<point x="503" y="18"/>
			<point x="502" y="68"/>
			<point x="502" y="134" type="curve" smooth="yes"/>
			<point x="502" y="223"/>
			<point x="501" y="272"/>
			<point x="500" y="361" type="curve" smooth="yes"/>
			<point x="500" y="482"/>
			<point x="437" y="555"/>
			<point x="311" y="555" type="curve" smooth="yes"/>
			<point x="175" y="555"/>
			<point x="103" y="458"/>
			<point x="103" y="378" type="curve"/>
			<point x="160" y="328" type="line"/>
			<point x="161" y="392"/>
			<point x="203" y="466"/>
			<point x="293" y="466" type="curve" smooth="yes"/>
			<point x="374" y="466"/>
			<point x="405" y="413"/>
			<point x="405" y="350" type="curve" smooth="yes"/>
		</contour>
	</outline>
</glyph>
<glyph name="n" format="2">
	<advance width="567"/>
	<unicode hex="006E"/>
	<guideline x="-11" y="-14" angle="0"/>
	<guideline x="-11" y="-14" angle="0"/>
	<guideline x="-11" y="-14" angle="0"/>
	<outline>
		<contour>
			<point x="429" y="-13" type="curve"/>
			<point x="471" y="-13"/>
			<point x="509" y="1"/>
			<point x="527" y="12" type="curve"/>
			<point x="516" y="23"/>
			<point x="502" y="64"/>
			<point x="502" y="134" type="curve" smooth="yes"/>
			<point x="502" y="223"/>
			<point x="501" y="272"/>
			<point x="500" y="361" type="curve" smooth="yes"/>
			<point x="500" y="482"/>
			<point x="437" y="555"/>
			<point x="311" y="555" type="curve" smooth="yes"/>
			<point x="175" y="555"/>
			<point x="111" y="439"/>
			<point x="103" y="378" type="curve"/>
			<point x="160" y="328" type="line"/>
			<point x="160" y="392"/>
			<point x="203" y="466"/>
			<point x="293" y="466" type="curve" smooth="yes"/>
			<point x="374" y="466"/>
			<point x="405" y="413"/>
			<point x="405" y="350" type="curve" smooth="yes"/>
			<point x="405" y="141" type="line" smooth="yes"/>
			<point x="405" y="38"/>
			<point x="419" y="-7"/>
		</contour>
		<contour>
			<point x="71" y="0" type="line"/>
			<point x="177" y="0" type="line"/>
			<point x="170" y="33"/>
			<point x="160" y="130"/>
			<point x="160" y="275" type="curve" smooth="yes"/>
			<point x="160" y="487" type="line"/>
			<point x="137" y="551" type="line"/>
			<point x="60" y="551" type="line"/>
			<point x="64" y="517"/>
			<point x="69" y="418"/>
			<point x="70" y="275" type="curve" smooth="yes"/>
		</contour>
	</outline>
</glyph>
<glyph name="o" format="2">
	<advance width="579"/>
	<unicode hex="006F"/>
	<anchor x="290" y="598" name="top"/>
	<outline>
		<contour>
			<point x="290" y="-14" type="curve" smooth="yes"/>
			<point x="447" y="-14"/>
			<point x="539" y="87"/>
			<point x="539" y="275" type="curve" smooth="yes"/>
			<point x="539" y="463"/>
			<point x="447" y="566"/>
			<point x="290" y="566" type="curve" smooth="yes"/>
			<point x="133" y="566"/>
			<point x="40" y="463"/>
			<point x="40" y="275" type="curve" smooth="yes"/>
			<point x="40" y="87"/>
			<point x="133" y="-14"/>
		</contour>
		<contour>
			<point x="290" y="66" type="curve" smooth="yes"/>
			<point x="218" y="66"/>
			<point x="140" y="113"/>
			<point x="140" y="275" type="curve" smooth="yes"/>
			<point x="140" y="437"/>
			<point x="218" y="485"/>
			<point x="290" y="485" type="curve" smooth="yes"/>
			<point x="362" y="485"/>
			<point x="440" y="437"/>
			<point x="440" y="275" type="curve" smooth="yes"/>
			<point x="440" y="113"/>
			<point x="362" y="66"/>
		</contour>
	</outline>
</glyph>
<glyph name="p" format="2">
	<advance width="566"/>
	<unicode hex="0070"/>
	<outline>
		<contour>
			<point x="132" y="-240" type="curve"/>
			<point x="159" y="-220"/>
			<point x="159" y="-180"/>
			<point x="159" y="-80" type="curve" smooth="yes"/>
			<point x="158" y="70" type="line"/>
			<point x="171" y="34"/>
			<point x="224" y="-13"/>
			<point x="320" y="-13" type="curve" smooth="yes"/>
			<point x="461" y="-13"/>
			<point x="526" y="116"/>
			<point x="526" y="284" type="curve" smooth="yes"/>
			<point x="526" y="480"/>
			<point x="424" y="565"/>
			<point x="308" y="565" type="curve" smooth="yes"/>
			<point x="231" y="566"/>
			<point x="167" y="522"/>
			<point x="141" y="489" type="curve"/>
			<point x="129" y="551" type="line"/>
			<point x="49" y="551" type="line"/>
			<point x="55" y="520"/>
			<point x="62" y="335"/>
			<point x="62" y="-56" type="curve" smooth="yes"/>
			<point x="62" y="-115"/>
			<point x="64" y="-160"/>
			<point x="45" y="-195" type="curve"/>
			<point x="71" y="-207"/>
			<point x="112" y="-228"/>
		</contour>
		<contour>
			<point x="296" y="69" type="curve" smooth="yes"/>
			<point x="236" y="69"/>
			<point x="158" y="124"/>
			<point x="158" y="280" type="curve" smooth="yes"/>
			<point x="158" y="404"/>
			<point x="217" y="483"/>
			<point x="293" y="483" type="curve" smooth="yes"/>
			<point x="375" y="483"/>
			<point x="428" y="417"/>
			<point x="428" y="282" type="curve" smooth="yes"/>
			<point x="428" y="149"/>
			<point x="390" y="69"/>
		</contour>
	</outline>
</glyph>
<glyph name="q" format="2">
	<advance width="585"/>
	<unicode hex="0071"/>
	<outline>
		<contour>
			<point x="272" y="-9" type="curve" smooth="yes"/>
			<point x="452" y="-9"/>
			<point x="472" y="180"/>
			<point x="472" y="224" type="curve"/>
			<point x="414" y="215" type="line"/>
			<point x="414" y="144"/>
			<point x="366" y="74"/>
			<point x="275" y="74" type="curve" smooth="yes"/>
			<point x="203" y="74"/>
			<point x="140" y="146"/>
			<point x="140" y="271" type="curve" smooth="yes"/>
			<point x="140" y="408"/>
			<point x="194" y="477"/>
			<point x="280" y="477" type="curve" smooth="yes"/>
			<point x="371" y="477"/>
			<point x="414" y="403"/>
			<point x="414" y="341" type="curve"/>
			<point x="474" y="349" type="line"/>
			<point x="474" y="426"/>
			<point x="420" y="561"/>
			<point x="274" y="561" type="curve" smooth="yes"/>
			<point x="140" y="561"/>
			<point x="40" y="464"/>
			<point x="40" y="276" type="curve" smooth="yes"/>
			<point x="40" y="77"/>
			<point x="150" y="-9"/>
		</contour>
		<contour>
			<point x="444" y="-217" type="curve"/>
			<point x="545" y="-178" type="line"/>
			<point x="544" y="-178"/>
			<point x="510" y="-135"/>
			<point x="510" y="-7" type="curve" smooth="yes"/>
			<point x="511" y="561" type="line"/>
			<point x="451" y="561" type="line"/>
			<point x="417" y="498" type="line"/>
			<point x="415" y="497"/>
			<point x="415" y="262"/>
			<point x="415" y="85" type="curve"/>
			<point x="415" y="-78" type="line" smooth="yes"/>
			<point x="415" y="-155"/>
			<point x="432" y="-203"/>
		</contour>
	</outline>
</glyph>
<glyph name="r" format="2">
	<advance width="373"/>
	<unicode hex="0072"/>
	<outline>
		<contour>
			<point x="60" y="0" type="curve"/>
			<point x="170" y="0" type="line"/>
			<point x="166" y="33"/>
			<point x="160" y="130"/>
			<point x="160" y="275" type="curve" smooth="yes"/>
			<point x="160" y="470" type="line"/>
			<point x="137" y="551" type="line"/>
			<point x="60" y="551" type="line"/>
			<point x="64" y="517"/>
			<point x="70" y="418"/>
			<point x="70" y="274" type="curve" smooth="yes"/>
			<point x="70" y="130"/>
			<point x="64" y="33"/>
		</contour>
		<contour>
			<point x="160" y="360" type="line"/>
			<point x="160" y="440"/>
			<point x="189" y="477"/>
			<point x="246" y="477" type="curve" smooth="yes"/>
			<point x="285" y="477"/>
			<point x="324" y="458"/>
			<point x="339" y="444" type="curve"/>
			<point x="351" y="457"/>
			<point x="361" y="494"/>
			<point x="357" y="520" type="curve" smooth="yes"/>
			<point x="353" y="545"/>
			<point x="326" y="561"/>
			<point x="270" y="560" type="curve" smooth="yes"/>
			<point x="178" y="558"/>
			<point x="112" y="457"/>
			<point x="112" y="369" type="curve"/>
		</contour>
	</outline>
</glyph>
<glyph name="v" format="2">
	<advance width="526"/>
	<unicode hex="0076"/>
	<outline>
		<contour>
			<point x="192" y="0" type="curve"/>
			<point x="292" y="0" type="line"/>
			<point x="281" y="39"/>
			<point x="252" y="140"/>
			<point x="214" y="275" type="curve" smooth="yes"/>
			<point x="174" y="419"/>
			<point x="142" y="516"/>
			<point x="133" y="550" type="curve"/>
			<point x="15" y="550" type="line"/>
			<point x="29" y="520"/>
			<point x="59" y="425"/>
			<point x="111" y="275" type="curve" smooth="yes"/>
			<point x="164" y="122"/>
			<point x="187" y="28"/>
		</contour>
		<contour>
			<point x="244" y="0" type="curve"/>
			<point x="329" y="0" type="line"/>
			<point x="333" y="23"/>
			<point x="354" y="103"/>
			<point x="398" y="237" type="curve" smooth="yes"/>
			<point x="457" y="416"/>
			<point x="497" y="501"/>
			<point x="511" y="516" type="curve"/>
			<point x="507" y="538"/>
			<point x="487" y="566"/>
			<point x="449" y="566" type="curve" smooth="yes"/>
			<point x="418" y="566"/>
			<point x="400" y="549"/>
			<point x="384" y="510" type="curve" smooth="yes"/>
			<point x="367" y="469"/>
			<point x="351" y="403"/>
			<point x="324" y="307" type="curve" smooth="yes"/>
			<point x="282" y="162"/>
			<point x="254" y="47"/>
		</contour>
	</outline>
</glyph>
<glyph name="w" format="2">
	<advance width="731"/>
	<unicode hex="0077"/>
	<outline>
		<contour>
			<point x="144" y="0" type="curve"/>
			<point x="281" y="0" type="line"/>
			<point x="384" y="510" type="line"/>
			<point x="336" y="509" type="line"/>
			<point x="432" y="0" type="line"/>
			<point x="571" y="0" type="line"/>
			<point x="578" y="44"/>
			<point x="611" y="152"/>
			<point x="645" y="288" type="curve" smooth="yes"/>
			<point x="684" y="444"/>
			<point x="709" y="518"/>
			<point x="716" y="530" type="curve"/>
			<point x="713" y="545"/>
			<point x="700" y="566"/>
			<point x="672" y="566" type="curve" smooth="yes"/>
			<point x="625" y="566"/>
			<point x="611" y="554"/>
			<point x="586" y="434" type="curve" smooth="yes"/>
			<point x="560" y="313"/>
			<point x="513" y="127"/>
			<point x="491" y="20" type="curve"/>
			<point x="528" y="27" type="line"/>
			<point x="476" y="275" type="line" smooth="yes"/>
			<point x="446" y="418"/>
			<point x="434" y="516"/>
			<point x="428" y="550" type="curve"/>
			<point x="324" y="550" type="line"/>
			<point x="282" y="375" type="line"/>
			<point x="196" y="19" type="line"/>
			<point x="235" y="35" type="line"/>
			<point x="179" y="275" type="line" smooth="yes"/>
			<point x="146" y="417"/>
			<point x="126" y="516"/>
			<point x="120" y="550" type="curve"/>
			<point x="15" y="550" type="line"/>
			<point x="23" y="520"/>
			<point x="47" y="425"/>
			<point x="81" y="275" type="curve" smooth="yes"/>
			<point x="117" y="117"/>
			<point x="141" y="25"/>
		</contour>
	</outline>
</glyph>
<glyph name="acute" format="2">
	<advance width="264"/>
	<unicode hex="00B4"/>
	<anchor x="40" y="514" name="_top"/>
	<outline>
		<contour>
			<point x="54" y="575" type="line"/>
			<point x="171" y="622" type="line" smooth="yes"/>
			<point x="224" y="644"/>
			<point x="250" y="663"/>
			<point x="250" y="699" type="curve" smooth="yes"/>
			<point x="250" y="727"/>
			<point x="230" y="750"/>
			<point x="215" y="759" type="curve"/>
			<point x="30" y="618" type="line"/>
		</contour>
	</outline>
</glyph>
<glyph name="tilde" format="2">
	<advance width="364"/>
	<unicode hex="02DC"/>
	<anchor x="149" y="585" name="_top"/>
	<outline>
		<contour>
			<point x="239" y="608" type="curve" smooth="yes"/>
			<point x="292" y="608"/>
			<point x="335" y="652"/>
			<point x="345" y="685" type="curve"/>
			<point x="345" y="711"/>
			<point x="324" y="725"/>
			<point x="311" y="725" type="curve"/>
			<point x="305" y="712"/>
			<point x="278" y="695"/>
			<point x="251" y="695" type="curve" smooth="yes"/>
			<point x="197" y="695"/>
			<point x="183" y="744"/>
			<point x="117" y="744" type="curve" smooth="yes"/>
			<point x="72" y="744"/>
			<point x="28" y="700"/>
			<point x="15" y="666" type="curve"/>
			<point x="15" y="640"/>
			<point x="30" y="628"/>
			<point x="50" y="628" type="curve"/>
			<point x="60" y="641"/>
			<point x="92" y="659"/>
			<point x="112" y="659" type="curve" smooth="yes"/>
			<point x="166" y="659"/>
			<point x="185" y="608"/>
		</contour>
	</outline>
</glyph>
<glyph name="g.alt" format="2">
	<advance width="557"/>
	<outline>
		<contour>
			<point x="282" y="-214" type="curve" smooth="yes"/>
			<point x="464" y="-214"/>
			<point x="532" y="-170"/>
			<point x="532" y="-65" type="curve" smooth="yes"/>
			<point x="532" y="29"/>
			<point x="489" y="64"/>
			<point x="363" y="64" type="curve" smooth="yes"/>
			<point x="282" y="64" type="line" smooth="yes"/>
			<point x="136" y="64"/>
			<point x="130" y="91"/>
			<point x="130" y="140" type="curve" smooth="yes"/>
			<point x="130" y="171"/>
			<point x="161" y="193"/>
			<point x="184" y="200" type="curve"/>
			<point x="139" y="249" type="line"/>
			<point x="102" y="231"/>
			<point x="52" y="183"/>
			<point x="52" y="117" type="curve" smooth="yes"/>
			<point x="52" y="19"/>
			<point x="135" y="-14"/>
			<point x="230" y="-14" type="curve" smooth="yes"/>
			<point x="369" y="-14" type="line" smooth="yes"/>
			<point x="427" y="-14"/>
			<point x="442" y="-33"/>
			<point x="442" y="-73" type="curve" smooth="yes"/>
			<point x="442" y="-130"/>
			<point x="423" y="-136"/>
			<point x="282" y="-136" type="curve" smooth="yes"/>
			<point x="128" y="-136"/>
			<point x="106" y="-124"/>
			<point x="106" y="-44" type="curve" smooth="yes"/>
			<point x="106" y="-8"/>
			<point x="128" y="31"/>
			<point x="145" y="49" type="curve"/>
			<point x="113" y="74" type="line"/>
			<point x="77" y="57"/>
			<point x="30" y="10"/>
			<point x="30" y="-57" type="curve" smooth="yes"/>
			<point x="30" y="-171"/>
			<point x="116" y="-214"/>
		</contour>
		<contour>
			<point x="272" y="152" type="curve" smooth="yes"/>
			<point x="386" y="152"/>
			<point x="479" y="235"/>
			<point x="479" y="359" type="curve" smooth="yes"/>
			<point x="479" y="483"/>
			<point x="386" y="566"/>
			<point x="272" y="566" type="curve" smooth="yes"/>
			<point x="157" y="566"/>
			<point x="64" y="483"/>
			<point x="64" y="359" type="curve" smooth="yes"/>
			<point x="64" y="235"/>
			<point x="157" y="152"/>
		</contour>
		<contour>
			<point x="272" y="233" type="curve" smooth="yes"/>
			<point x="193" y="233"/>
			<point x="164" y="271"/>
			<point x="164" y="359" type="curve" smooth="yes"/>
			<point x="164" y="447"/>
			<point x="193" y="485"/>
			<point x="272" y="485" type="curve" smooth="yes"/>
			<point x="350" y="485"/>
			<point x="379" y="447"/>
			<point x="379" y="359" type="curve" smooth="yes"/>
			<point x="379" y="271"/>
			<point x="350" y="233"/>
		</contour>
		<contour>
			<point x="342" y="480" type="line"/>
			<point x="491" y="480"/>
			<point x="520" y="485"/>
			<point x="520" y="541" type="curve" smooth="yes"/>
			<point x="520" y="568"/>
			<point x="509" y="582"/>
			<point x="501" y="585" type="curve"/>
			<point x="473" y="565"/>
			<point x="411" y="538"/>
			<point x="342" y="538" type="curve"/>
		</contour>
	</outline>
</glyph>
